<svg width="438" height="255" viewBox="0 0 438 255" fill="none" xmlns="http://www.w3.org/2000/svg">
  <defs>
    <linearGradient id="metal" x1="70" y1="24" x2="352" y2="212" gradientUnits="userSpaceOnUse">
      <stop offset="0" stop-color="#8E8E8E"/>
      <stop offset="0.18" stop-color="#E9E9E9"/>
      <stop offset="0.38" stop-color="#BDBDBD"/>
      <stop offset="0.65" stop-color="#F7F7F7"/>
      <stop offset="1" stop-color="#8A8A8A"/>
    </linearGradient>
    <linearGradient id="metalSoft" x1="47" y1="120" x2="385" y2="231" gradientUnits="userSpaceOnUse">
      <stop offset="0" stop-color="#979797"/>
      <stop offset="0.25" stop-color="#F0F0F0"/>
      <stop offset="0.55" stop-color="#BBBBBB"/>
      <stop offset="0.82" stop-color="#FAFAFA"/>
      <stop offset="1" stop-color="#8B8B8B"/>
    </linearGradient>
    <filter id="glow" x="0" y="0" width="438" height="255" filterUnits="userSpaceOnUse" color-interpolation-filters="sRGB">
      <feDropShadow dx="0" dy="8" stdDeviation="10" flood-color="#000000" flood-opacity="0.38"/>
    </filter>
  </defs>

  <g filter="url(#glow)">
    <path d="M78 136C78 79.667 124.089 34 180.939 34H256.061C312.911 34 359 79.667 359 136H329.92C329.92 95.658 296.96 62.957 256.304 62.957H180.696C140.04 62.957 107.08 95.658 107.08 136H78Z" fill="url(#metal)"/>
    <path d="M201.63 34H236.37V136H201.63V34Z" fill="url(#metal)"/>
    <path d="M136 86.785H194.163V120.251H136V86.785Z" fill="url(#metal)"/>
    <path d="M243.837 86.785H302V120.251H243.837V86.785Z" fill="url(#metal)"/>

    <g fill="url(#metalSoft)">
      <path d="M26 214.112C26 200.055 35.472 190.589 49.53 190.589H80.86C92.857 190.589 100.909 196.329 103.263 205.436H91.47C89.9 201.513 86.482 199.286 81.63 199.286H52.6C45.874 199.286 41.488 203.628 41.488 210.394C41.488 217.12 45.874 221.502 52.6 221.502H80.506V214.695H56.2V206.795H94.604V231H49.53C35.472 231 26 221.076 26 214.112Z"/>
      <path d="M112.844 231V190.589H124.801V196.861C128.349 192.068 133.999 189.264 142.767 189.264H145.531V200.28H141.566C130.882 200.28 124.801 205.065 124.801 214.24V231H112.844Z"/>
      <path d="M149.715 210.794C149.715 198.291 159.153 189.264 173.485 189.264C187.857 189.264 197.014 198.048 197.014 210.315C197.014 211.967 196.894 213.432 196.653 214.714H161.556C162.602 220.685 166.888 223.97 173.886 223.97C178.936 223.97 182.57 222.039 184.779 218.344H196.053C191.885 226.542 183.754 231.92 173.366 231.92C158.51 231.92 149.715 222.773 149.715 210.794ZM185.339 206.504C184.735 201.304 180.803 198.17 174.964 198.17C169.073 198.17 164.646 201.576 163.393 206.504H185.339Z"/>
      <path d="M203.239 210.794C203.239 198.291 212.677 189.264 227.009 189.264C241.381 189.264 250.538 198.048 250.538 210.315C250.538 211.967 250.418 213.432 250.177 214.714H215.08C216.127 220.685 220.412 223.97 227.41 223.97C232.46 223.97 236.094 222.039 238.303 218.344H249.577C245.41 226.542 237.278 231.92 226.89 231.92C212.034 231.92 203.239 222.773 203.239 210.794ZM238.864 206.504C238.26 201.304 234.327 198.17 228.488 198.17C222.597 198.17 218.17 201.576 216.917 206.504H238.864Z"/>
      <path d="M255.683 210.394C255.683 197.411 264.451 189.264 278.086 189.264C286.903 189.264 293.074 192.835 296.003 199.143V190.589H307.959V231H296.003V222.447C293.001 228.715 286.743 231.92 277.726 231.92C264.332 231.92 255.683 222.776 255.683 210.394ZM295.641 210.594C295.641 203.266 290.517 198.449 282.973 198.449C275.391 198.449 270.311 203.225 270.311 210.594C270.311 217.923 275.391 222.736 282.973 222.736C290.517 222.736 295.641 217.923 295.641 210.594Z"/>
      <path d="M315.598 231V190.589H327.555V196.181C331.103 191.788 336.311 189.264 344.079 189.264C357.083 189.264 364.258 197.087 364.258 210.674V231H352.301V212.425C352.301 203.788 348.417 199.286 340.515 199.286C332.508 199.286 327.555 204.404 327.555 212.746V231H315.598Z"/>
      <path d="M369.458 210.394C369.458 197.411 378.226 189.264 391.86 189.264C400.678 189.264 406.849 192.835 409.777 199.143V190.589H421.734V231H409.777V222.447C406.775 228.715 400.517 231.92 391.5 231.92C378.107 231.92 369.458 222.776 369.458 210.394ZM409.416 210.594C409.416 203.266 404.291 198.449 396.748 198.449C389.166 198.449 384.085 203.225 384.085 210.594C384.085 217.923 389.166 222.736 396.748 222.736C404.291 222.736 409.416 217.923 409.416 210.594Z"/>
    </g>
  </g>
</svg>
